G04 ---------------------------- Layer name :TOP SILK LAYER*
G04 EasyEDA v5.4.12, Tue, 15 May 2018 13:13:22 GMT*
G04 e3774910c10740a696398d4b8e6a0cea*
G04 Gerber Generator version 0.2*
G04 Scale: 100 percent, Rotated: No, Reflected: No *
G04 Dimensions in inches *
G04 leading zeros omitted , absolute positions ,2 integer and 4 decimal *
%FSLAX24Y24*%
%MOIN*%
G90*
G70D02*

%ADD10C,0.010000*%
%ADD11C,0.008000*%
%ADD21C,0.007992*%
%ADD22C,0.007874*%
%ADD23C,0.007870*%
%ADD24C,0.007000*%
%ADD25C,0.004000*%
%ADD26C,0.006000*%
%ADD27C,0.003000*%

%LPD*%
G54D11*
G01X4700Y1500D02*
G01X3700Y1500D01*
G01X3700Y2500D01*
G01X4700Y2500D01*
G01X4700Y1750D01*
G54D21*
G01X4700Y1500D02*
G01X4700Y1750D01*
G54D11*
G01X4700Y400D02*
G01X3700Y400D01*
G01X3700Y1400D01*
G01X4700Y1400D01*
G01X4700Y650D01*
G54D21*
G01X4700Y400D02*
G01X4700Y650D01*
G54D22*
G01X1530Y4040D02*
G01X1530Y4669D01*
G01X1530Y4669D02*
G01X1140Y4669D01*
G01X1530Y4040D02*
G01X1530Y3409D01*
G01X1530Y3409D02*
G01X1140Y3409D01*
G01X1140Y3409D02*
G01X750Y3409D01*
G01X750Y3409D02*
G01X750Y4040D01*
G01X1140Y4669D02*
G01X750Y4669D01*
G01X750Y4669D02*
G01X750Y4040D01*
G01X1530Y2440D02*
G01X1530Y3069D01*
G01X1530Y3069D02*
G01X1140Y3069D01*
G01X1530Y2440D02*
G01X1530Y1809D01*
G01X1530Y1809D02*
G01X1140Y1809D01*
G01X1140Y1809D02*
G01X750Y1809D01*
G01X750Y1809D02*
G01X750Y2440D01*
G01X1140Y3069D02*
G01X750Y3069D01*
G01X750Y3069D02*
G01X750Y2440D01*
G54D10*
G01X2350Y4659D02*
G01X2500Y4659D01*
G01X2500Y4659D02*
G01X3050Y4659D01*
G01X2350Y4140D02*
G01X2500Y4140D01*
G01X2500Y4140D02*
G01X3050Y4140D01*
G01X2896Y4636D02*
G01X2896Y4155D01*
G01X1009Y1200D02*
G01X1009Y1000D01*
G01X390Y1000D02*
G01X390Y1200D01*
G54D22*
G01X2284Y2771D02*
G01X2284Y3205D01*
G01X2915Y3205D01*
G01X2915Y2771D01*
G01X2284Y2457D02*
G01X2284Y2023D01*
G01X2678Y2023D01*
G01X2915Y2023D01*
G01X2915Y2457D01*
G54D23*
G01X4518Y3892D02*
G01X5038Y3892D01*
G01X5038Y4707D01*
G01X4518Y4707D01*
G01X4072Y3892D02*
G01X3553Y3892D01*
G01X3553Y4707D01*
G01X4072Y4707D01*
G01X4518Y2892D02*
G01X5038Y2892D01*
G01X5038Y3707D01*
G01X4518Y3707D01*
G01X4072Y2892D02*
G01X3553Y2892D01*
G01X3553Y3707D01*
G01X4072Y3707D01*
G01X3107Y1118D02*
G01X3107Y1638D01*
G01X2292Y1638D01*
G01X2292Y1118D01*
G01X3107Y672D02*
G01X3107Y153D01*
G01X2292Y153D01*
G01X2292Y672D01*
G01X2007Y1118D02*
G01X2007Y1638D01*
G01X1192Y1638D01*
G01X1192Y1118D01*
G01X2007Y672D02*
G01X2007Y153D01*
G01X1192Y153D01*
G01X1192Y672D01*
G54D24*
G01X4598Y1597D02*
G01X4884Y1720D01*
G01X4598Y1842D02*
G01X4884Y1720D01*
G01X4659Y2223D02*
G01X4617Y2182D01*
G01X4598Y2141D01*
G01X4598Y2080D01*
G01X4617Y2039D01*
G01X4659Y1998D01*
G01X4719Y1977D01*
G01X4761Y1977D01*
G01X4822Y1998D01*
G01X4864Y2039D01*
G01X4884Y2080D01*
G01X4884Y2141D01*
G01X4864Y2182D01*
G01X4822Y2223D01*
G01X4659Y2603D02*
G01X4617Y2562D01*
G01X4598Y2522D01*
G01X4598Y2460D01*
G01X4617Y2419D01*
G01X4659Y2378D01*
G01X4719Y2358D01*
G01X4761Y2358D01*
G01X4822Y2378D01*
G01X4864Y2419D01*
G01X4884Y2460D01*
G01X4884Y2522D01*
G01X4864Y2562D01*
G01X4822Y2603D01*
G01X4598Y600D02*
G01X4925Y600D01*
G01X4985Y580D01*
G01X5006Y559D01*
G01X5027Y519D01*
G01X5027Y457D01*
G01X5006Y415D01*
G01X4659Y600D02*
G01X4617Y559D01*
G01X4598Y519D01*
G01X4598Y457D01*
G01X4617Y415D01*
G01X4659Y375D01*
G01X4719Y355D01*
G01X4761Y355D01*
G01X4822Y375D01*
G01X4864Y415D01*
G01X4884Y457D01*
G01X4884Y519D01*
G01X4864Y559D01*
G01X4822Y600D01*
G01X4598Y734D02*
G01X4884Y734D01*
G01X4680Y734D02*
G01X4617Y796D01*
G01X4598Y838D01*
G01X4598Y898D01*
G01X4617Y940D01*
G01X4680Y959D01*
G01X4884Y959D01*
G01X4455Y1340D02*
G01X4884Y1340D01*
G01X4659Y1340D02*
G01X4617Y1300D01*
G01X4598Y1259D01*
G01X4598Y1198D01*
G01X4617Y1157D01*
G01X4659Y1115D01*
G01X4719Y1094D01*
G01X4761Y1094D01*
G01X4822Y1115D01*
G01X4864Y1157D01*
G01X4884Y1198D01*
G01X4884Y1259D01*
G01X4864Y1300D01*
G01X4822Y1340D01*
G54D25*
G01X1238Y4609D02*
G01X1000Y4700D01*
G01X1238Y4609D02*
G01X1000Y4517D01*
G01X1078Y4665D02*
G01X1078Y4551D01*
G01X1238Y4363D02*
G01X1000Y4363D01*
G01X1238Y4442D02*
G01X1238Y4284D01*
G01X1238Y4130D02*
G01X1000Y4130D01*
G01X1238Y4209D02*
G01X1238Y4050D01*
G01X1238Y3975D02*
G01X1000Y3975D01*
G01X1238Y3900D02*
G01X1000Y3900D01*
G01X1238Y3900D02*
G01X1000Y3740D01*
G01X1238Y3740D02*
G01X1000Y3740D01*
G01X1238Y3665D02*
G01X1125Y3575D01*
G01X1000Y3575D01*
G01X1238Y3484D02*
G01X1125Y3575D01*
G01X1191Y2900D02*
G01X1000Y2900D01*
G01X1000Y2900D02*
G01X1000Y2791D01*
G01X1191Y2667D02*
G01X1000Y2667D01*
G01X1191Y2731D02*
G01X1191Y2604D01*
G01X1155Y2544D02*
G01X1164Y2525D01*
G01X1191Y2498D01*
G01X1000Y2498D01*
G01X1127Y2320D02*
G01X1100Y2329D01*
G01X1082Y2347D01*
G01X1073Y2375D01*
G01X1073Y2384D01*
G01X1082Y2411D01*
G01X1100Y2429D01*
G01X1127Y2438D01*
G01X1137Y2438D01*
G01X1164Y2429D01*
G01X1182Y2411D01*
G01X1191Y2384D01*
G01X1191Y2375D01*
G01X1182Y2347D01*
G01X1164Y2329D01*
G01X1127Y2320D01*
G01X1082Y2320D01*
G01X1037Y2329D01*
G01X1009Y2347D01*
G01X1000Y2375D01*
G01X1000Y2393D01*
G01X1009Y2420D01*
G01X1027Y2429D01*
G01X1191Y2242D02*
G01X1191Y2142D01*
G01X1118Y2196D01*
G01X1118Y2169D01*
G01X1109Y2151D01*
G01X1100Y2142D01*
G01X1073Y2133D01*
G01X1055Y2133D01*
G01X1027Y2142D01*
G01X1009Y2160D01*
G01X1000Y2187D01*
G01X1000Y2215D01*
G01X1009Y2242D01*
G01X1018Y2251D01*
G01X1037Y2260D01*
G01X1146Y2064D02*
G01X1155Y2064D01*
G01X1173Y2055D01*
G01X1182Y2045D01*
G01X1191Y2027D01*
G01X1191Y1991D01*
G01X1182Y1973D01*
G01X1173Y1964D01*
G01X1155Y1955D01*
G01X1137Y1955D01*
G01X1118Y1964D01*
G01X1091Y1982D01*
G01X1000Y2073D01*
G01X1000Y1945D01*
G01X2500Y4500D02*
G01X2500Y4262D01*
G01X2500Y4500D02*
G01X2580Y4500D01*
G01X2613Y4489D01*
G01X2636Y4466D01*
G01X2648Y4444D01*
G01X2659Y4409D01*
G01X2659Y4353D01*
G01X2648Y4319D01*
G01X2636Y4296D01*
G01X2613Y4273D01*
G01X2580Y4262D01*
G01X2500Y4262D01*
G01X2734Y4455D02*
G01X2757Y4466D01*
G01X2790Y4500D01*
G01X2790Y4262D01*
G54D24*
G01X800Y985D02*
G01X990Y985D01*
G01X990Y985D02*
G01X990Y1094D01*
G01X836Y1154D02*
G01X826Y1172D01*
G01X800Y1200D01*
G01X990Y1200D01*
G54D26*
G01X3026Y1994D02*
G01X3409Y1994D01*
G01X3409Y1994D02*
G01X3409Y2213D01*
G01X3026Y2332D02*
G01X3409Y2332D01*
G01X3026Y2332D02*
G01X3026Y2569D01*
G01X3209Y2332D02*
G01X3209Y2478D01*
G01X3409Y2332D02*
G01X3409Y2569D01*
G01X3026Y2690D02*
G01X3409Y2690D01*
G01X3026Y2690D02*
G01X3026Y2817D01*
G01X3044Y2871D01*
G01X3080Y2907D01*
G01X3117Y2926D01*
G01X3171Y2944D01*
G01X3263Y2944D01*
G01X3317Y2926D01*
G01X3353Y2907D01*
G01X3390Y2871D01*
G01X3409Y2817D01*
G01X3409Y2690D01*
G01X3100Y3063D02*
G01X3080Y3100D01*
G01X3026Y3155D01*
G01X3409Y3155D01*
G54D25*
G01X4245Y4294D02*
G01X4227Y4285D01*
G01X4209Y4267D01*
G01X4200Y4249D01*
G01X4200Y4213D01*
G01X4209Y4194D01*
G01X4227Y4176D01*
G01X4245Y4167D01*
G01X4273Y4158D01*
G01X4318Y4158D01*
G01X4345Y4167D01*
G01X4364Y4176D01*
G01X4382Y4194D01*
G01X4391Y4213D01*
G01X4391Y4249D01*
G01X4382Y4267D01*
G01X4364Y4285D01*
G01X4345Y4294D01*
G01X4236Y4354D02*
G01X4227Y4373D01*
G01X4200Y4400D01*
G01X4391Y4400D01*
G54D27*
G01X4245Y3211D02*
G01X4227Y3203D01*
G01X4209Y3184D01*
G01X4200Y3167D01*
G01X4200Y3130D01*
G01X4209Y3111D01*
G01X4227Y3094D01*
G01X4245Y3084D01*
G01X4273Y3076D01*
G01X4318Y3076D01*
G01X4345Y3084D01*
G01X4364Y3094D01*
G01X4382Y3111D01*
G01X4391Y3130D01*
G01X4391Y3167D01*
G01X4382Y3184D01*
G01X4364Y3203D01*
G01X4345Y3211D01*
G01X4245Y3280D02*
G01X4236Y3280D01*
G01X4218Y3290D01*
G01X4209Y3300D01*
G01X4200Y3317D01*
G01X4200Y3353D01*
G01X4209Y3371D01*
G01X4218Y3380D01*
G01X4236Y3390D01*
G01X4254Y3390D01*
G01X4273Y3380D01*
G01X4300Y3363D01*
G01X4391Y3271D01*
G01X4391Y3400D01*
G54D24*
G01X2928Y1200D02*
G01X2499Y1200D01*
G01X2928Y1200D02*
G01X2928Y1015D01*
G01X2908Y955D01*
G01X2888Y934D01*
G01X2847Y913D01*
G01X2806Y913D01*
G01X2765Y934D01*
G01X2744Y955D01*
G01X2724Y1015D01*
G01X2724Y1200D01*
G01X2724Y1057D02*
G01X2499Y913D01*
G01X2847Y778D02*
G01X2867Y738D01*
G01X2928Y676D01*
G01X2499Y676D01*
G01X1400Y591D02*
G01X1828Y591D01*
G01X1400Y591D02*
G01X1400Y775D01*
G01X1419Y836D01*
G01X1440Y857D01*
G01X1480Y877D01*
G01X1521Y877D01*
G01X1563Y857D01*
G01X1584Y836D01*
G01X1603Y775D01*
G01X1603Y591D01*
G01X1603Y734D02*
G01X1828Y877D01*
G01X1501Y1033D02*
G01X1480Y1033D01*
G01X1440Y1053D01*
G01X1419Y1074D01*
G01X1400Y1115D01*
G01X1400Y1196D01*
G01X1419Y1237D01*
G01X1440Y1258D01*
G01X1480Y1278D01*
G01X1521Y1278D01*
G01X1563Y1258D01*
G01X1625Y1217D01*
G01X1828Y1012D01*
G01X1828Y1299D01*
G54D22*
G75*
G01X1040Y4430D02*
G03X1040Y4430I-100J0D01*
G01*
G75*
G01X1040Y2830D02*
G03X1040Y2830I-100J0D01*
G01*
M00*
M02*
