G04 ---------------------------- Layer name :TOP SILK LAYER*
G04 EasyEDA v5.4.12, Wed, 30 May 2018 18:18:05 GMT*
G04 5ddd2809abea4f13a97f4610e2c86d9f*
G04 Gerber Generator version 0.2*
G04 Scale: 100 percent, Rotated: No, Reflected: No *
G04 Dimensions in inches *
G04 leading zeros omitted , absolute positions ,2 integer and 4 decimal *
%FSLAX24Y24*%
%MOIN*%
G90*
G70D02*

%ADD10C,0.010000*%
%ADD11C,0.008000*%
%ADD21C,0.007992*%
%ADD22C,0.007874*%
%ADD23C,0.007870*%
%ADD24C,0.007000*%
%ADD25C,0.004000*%
%ADD26C,0.006000*%
%ADD27C,0.003000*%

%LPD*%
G54D11*
G01X4700Y1500D02*
G01X3700Y1500D01*
G01X3700Y2500D01*
G01X4700Y2500D01*
G01X4700Y1750D01*
G54D21*
G01X4700Y1500D02*
G01X4700Y1750D01*
G54D11*
G01X4700Y400D02*
G01X3700Y400D01*
G01X3700Y1400D01*
G01X4700Y1400D01*
G01X4700Y650D01*
G54D21*
G01X4700Y400D02*
G01X4700Y650D01*
G54D22*
G01X1530Y4040D02*
G01X1530Y4669D01*
G01X1530Y4669D02*
G01X1140Y4669D01*
G01X1530Y4040D02*
G01X1530Y3409D01*
G01X1530Y3409D02*
G01X1140Y3409D01*
G01X1140Y3409D02*
G01X750Y3409D01*
G01X750Y3409D02*
G01X750Y4040D01*
G01X1140Y4669D02*
G01X750Y4669D01*
G01X750Y4669D02*
G01X750Y4040D01*
G01X1530Y2440D02*
G01X1530Y3069D01*
G01X1530Y3069D02*
G01X1140Y3069D01*
G01X1530Y2440D02*
G01X1530Y1809D01*
G01X1530Y1809D02*
G01X1140Y1809D01*
G01X1140Y1809D02*
G01X750Y1809D01*
G01X750Y1809D02*
G01X750Y2440D01*
G01X1140Y3069D02*
G01X750Y3069D01*
G01X750Y3069D02*
G01X750Y2440D01*
G54D10*
G01X2350Y4659D02*
G01X2500Y4659D01*
G01X2500Y4659D02*
G01X3050Y4659D01*
G01X2350Y4140D02*
G01X2500Y4140D01*
G01X2500Y4140D02*
G01X3050Y4140D01*
G01X2896Y4636D02*
G01X2896Y4155D01*
G01X1009Y1200D02*
G01X1009Y1000D01*
G01X390Y1000D02*
G01X390Y1200D01*
G54D22*
G01X2284Y2772D02*
G01X2284Y3205D01*
G01X2915Y3205D01*
G01X2915Y2772D01*
G01X2284Y2457D02*
G01X2284Y2024D01*
G01X2678Y2024D01*
G01X2915Y2024D01*
G01X2915Y2457D01*
G54D23*
G01X4518Y3892D02*
G01X5038Y3892D01*
G01X5038Y4707D01*
G01X4518Y4707D01*
G01X4072Y3892D02*
G01X3553Y3892D01*
G01X3553Y4707D01*
G01X4072Y4707D01*
G01X4518Y2892D02*
G01X5038Y2892D01*
G01X5038Y3707D01*
G01X4518Y3707D01*
G01X4072Y2892D02*
G01X3553Y2892D01*
G01X3553Y3707D01*
G01X4072Y3707D01*
G01X3107Y1117D02*
G01X3107Y1638D01*
G01X2292Y1638D01*
G01X2292Y1117D01*
G01X3107Y673D02*
G01X3107Y153D01*
G01X2292Y153D01*
G01X2292Y673D01*
G01X2007Y1117D02*
G01X2007Y1638D01*
G01X1192Y1638D01*
G01X1192Y1117D01*
G01X2007Y673D02*
G01X2007Y153D01*
G01X1192Y153D01*
G01X1192Y673D01*
G54D24*
G01X4799Y1629D02*
G01X4990Y1711D01*
G01X4799Y1793D02*
G01X4990Y1711D01*
G01X4840Y2046D02*
G01X4812Y2019D01*
G01X4799Y1992D01*
G01X4799Y1951D01*
G01X4812Y1924D01*
G01X4840Y1896D01*
G01X4881Y1883D01*
G01X4908Y1883D01*
G01X4949Y1896D01*
G01X4976Y1924D01*
G01X4990Y1951D01*
G01X4990Y1992D01*
G01X4976Y2019D01*
G01X4949Y2046D01*
G01X4840Y2300D02*
G01X4812Y2273D01*
G01X4799Y2245D01*
G01X4799Y2204D01*
G01X4812Y2177D01*
G01X4840Y2150D01*
G01X4881Y2136D01*
G01X4908Y2136D01*
G01X4949Y2150D01*
G01X4976Y2177D01*
G01X4990Y2204D01*
G01X4990Y2245D01*
G01X4976Y2273D01*
G01X4949Y2300D01*
G01X4795Y706D02*
G01X5013Y706D01*
G01X5054Y692D01*
G01X5068Y678D01*
G01X5081Y651D01*
G01X5081Y610D01*
G01X5068Y583D01*
G01X4836Y706D02*
G01X4808Y678D01*
G01X4795Y651D01*
G01X4795Y610D01*
G01X4808Y583D01*
G01X4836Y556D01*
G01X4877Y542D01*
G01X4904Y542D01*
G01X4945Y556D01*
G01X4972Y583D01*
G01X4986Y610D01*
G01X4986Y651D01*
G01X4972Y678D01*
G01X4945Y706D01*
G01X4795Y796D02*
G01X4986Y796D01*
G01X4849Y796D02*
G01X4808Y837D01*
G01X4795Y864D01*
G01X4795Y905D01*
G01X4808Y932D01*
G01X4849Y946D01*
G01X4986Y946D01*
G01X4699Y1199D02*
G01X4986Y1199D01*
G01X4836Y1199D02*
G01X4808Y1172D01*
G01X4795Y1145D01*
G01X4795Y1104D01*
G01X4808Y1077D01*
G01X4836Y1049D01*
G01X4877Y1036D01*
G01X4904Y1036D01*
G01X4945Y1049D01*
G01X4972Y1077D01*
G01X4986Y1104D01*
G01X4986Y1145D01*
G01X4972Y1172D01*
G01X4945Y1199D01*
G54D25*
G01X1290Y4426D02*
G01X1100Y4500D01*
G01X1290Y4426D02*
G01X1100Y4355D01*
G01X1163Y4473D02*
G01X1163Y4382D01*
G01X1290Y4230D02*
G01X1100Y4230D01*
G01X1290Y4294D02*
G01X1290Y4167D01*
G01X1290Y4044D02*
G01X1100Y4044D01*
G01X1290Y4107D02*
G01X1290Y3980D01*
G01X1290Y3919D02*
G01X1100Y3919D01*
G01X1290Y3859D02*
G01X1100Y3859D01*
G01X1290Y3859D02*
G01X1100Y3732D01*
G01X1290Y3732D02*
G01X1100Y3732D01*
G01X1290Y3673D02*
G01X1200Y3600D01*
G01X1100Y3600D01*
G01X1290Y3526D02*
G01X1200Y3600D01*
G01X1271Y2800D02*
G01X1099Y2800D01*
G01X1099Y2800D02*
G01X1099Y2701D01*
G01X1271Y2590D02*
G01X1099Y2590D01*
G01X1271Y2648D02*
G01X1271Y2532D01*
G01X1238Y2478D02*
G01X1247Y2463D01*
G01X1271Y2438D01*
G01X1099Y2438D01*
G01X1214Y2278D02*
G01X1189Y2286D01*
G01X1173Y2303D01*
G01X1165Y2326D01*
G01X1165Y2334D01*
G01X1173Y2359D01*
G01X1189Y2376D01*
G01X1214Y2384D01*
G01X1222Y2384D01*
G01X1247Y2376D01*
G01X1263Y2359D01*
G01X1271Y2334D01*
G01X1271Y2326D01*
G01X1263Y2303D01*
G01X1247Y2286D01*
G01X1214Y2278D01*
G01X1173Y2278D01*
G01X1132Y2286D01*
G01X1108Y2303D01*
G01X1099Y2326D01*
G01X1099Y2342D01*
G01X1108Y2367D01*
G01X1124Y2376D01*
G01X1271Y2207D02*
G01X1271Y2117D01*
G01X1206Y2167D01*
G01X1206Y2142D01*
G01X1198Y2126D01*
G01X1189Y2117D01*
G01X1165Y2109D01*
G01X1148Y2109D01*
G01X1124Y2117D01*
G01X1108Y2134D01*
G01X1099Y2159D01*
G01X1099Y2182D01*
G01X1108Y2207D01*
G01X1116Y2215D01*
G01X1132Y2223D01*
G01X1230Y2046D02*
G01X1238Y2046D01*
G01X1255Y2038D01*
G01X1263Y2030D01*
G01X1271Y2015D01*
G01X1271Y1982D01*
G01X1263Y1965D01*
G01X1255Y1957D01*
G01X1238Y1948D01*
G01X1222Y1948D01*
G01X1206Y1957D01*
G01X1181Y1973D01*
G01X1099Y2055D01*
G01X1099Y1940D01*
G01X2400Y4000D02*
G01X2400Y3762D01*
G01X2400Y4000D02*
G01X2480Y4000D01*
G01X2513Y3989D01*
G01X2536Y3966D01*
G01X2548Y3944D01*
G01X2559Y3909D01*
G01X2559Y3853D01*
G01X2548Y3819D01*
G01X2536Y3796D01*
G01X2513Y3773D01*
G01X2480Y3762D01*
G01X2400Y3762D01*
G01X2634Y3955D02*
G01X2657Y3966D01*
G01X2690Y4000D01*
G01X2690Y3762D01*
G54D24*
G01X600Y985D02*
G01X790Y985D01*
G01X790Y985D02*
G01X790Y1094D01*
G01X636Y1154D02*
G01X626Y1172D01*
G01X600Y1200D01*
G01X790Y1200D01*
G54D26*
G01X3026Y1994D02*
G01X3409Y1994D01*
G01X3409Y1994D02*
G01X3409Y2213D01*
G01X3026Y2332D02*
G01X3409Y2332D01*
G01X3026Y2332D02*
G01X3026Y2569D01*
G01X3209Y2332D02*
G01X3209Y2478D01*
G01X3409Y2332D02*
G01X3409Y2569D01*
G01X3026Y2690D02*
G01X3409Y2690D01*
G01X3026Y2690D02*
G01X3026Y2817D01*
G01X3044Y2871D01*
G01X3080Y2907D01*
G01X3117Y2926D01*
G01X3171Y2944D01*
G01X3263Y2944D01*
G01X3317Y2926D01*
G01X3353Y2907D01*
G01X3390Y2871D01*
G01X3409Y2817D01*
G01X3409Y2690D01*
G01X3100Y3063D02*
G01X3080Y3100D01*
G01X3026Y3155D01*
G01X3409Y3155D01*
G54D25*
G01X4245Y4294D02*
G01X4227Y4285D01*
G01X4209Y4267D01*
G01X4200Y4249D01*
G01X4200Y4213D01*
G01X4209Y4194D01*
G01X4227Y4176D01*
G01X4245Y4167D01*
G01X4273Y4158D01*
G01X4318Y4158D01*
G01X4345Y4167D01*
G01X4364Y4176D01*
G01X4382Y4194D01*
G01X4391Y4213D01*
G01X4391Y4249D01*
G01X4382Y4267D01*
G01X4364Y4285D01*
G01X4345Y4294D01*
G01X4236Y4354D02*
G01X4227Y4373D01*
G01X4200Y4400D01*
G01X4391Y4400D01*
G54D27*
G01X4245Y3211D02*
G01X4227Y3203D01*
G01X4209Y3184D01*
G01X4200Y3167D01*
G01X4200Y3130D01*
G01X4209Y3111D01*
G01X4227Y3094D01*
G01X4245Y3084D01*
G01X4273Y3076D01*
G01X4318Y3076D01*
G01X4345Y3084D01*
G01X4364Y3094D01*
G01X4382Y3111D01*
G01X4391Y3130D01*
G01X4391Y3167D01*
G01X4382Y3184D01*
G01X4364Y3203D01*
G01X4345Y3211D01*
G01X4245Y3280D02*
G01X4236Y3280D01*
G01X4218Y3290D01*
G01X4209Y3300D01*
G01X4200Y3317D01*
G01X4200Y3353D01*
G01X4209Y3371D01*
G01X4218Y3380D01*
G01X4236Y3390D01*
G01X4254Y3390D01*
G01X4273Y3380D01*
G01X4300Y3363D01*
G01X4391Y3271D01*
G01X4391Y3400D01*
G54D25*
G01X2499Y790D02*
G01X2671Y790D01*
G01X2499Y790D02*
G01X2499Y864D01*
G01X2507Y888D01*
G01X2515Y896D01*
G01X2532Y905D01*
G01X2548Y905D01*
G01X2564Y896D01*
G01X2572Y888D01*
G01X2581Y864D01*
G01X2581Y790D01*
G01X2581Y847D02*
G01X2671Y905D01*
G01X2532Y959D02*
G01X2523Y975D01*
G01X2499Y999D01*
G01X2671Y999D01*
G01X1400Y763D02*
G01X1543Y763D01*
G01X1400Y763D02*
G01X1400Y825D01*
G01X1407Y846D01*
G01X1414Y853D01*
G01X1427Y859D01*
G01X1441Y859D01*
G01X1455Y853D01*
G01X1462Y846D01*
G01X1468Y825D01*
G01X1468Y763D01*
G01X1468Y811D02*
G01X1543Y859D01*
G01X1434Y911D02*
G01X1427Y911D01*
G01X1414Y917D01*
G01X1407Y925D01*
G01X1400Y938D01*
G01X1400Y965D01*
G01X1407Y978D01*
G01X1414Y986D01*
G01X1427Y992D01*
G01X1441Y992D01*
G01X1455Y986D01*
G01X1475Y973D01*
G01X1543Y903D01*
G01X1543Y1000D01*
G54D26*
G01X2073Y3200D02*
G01X2073Y3051D01*
G01X2000Y3126D02*
G01X2146Y3126D01*
G54D22*
G75*
G01X1040Y4430D02*
G03X1040Y4430I-100J0D01*
G01*
G75*
G01X1040Y2830D02*
G03X1040Y2830I-100J0D01*
G01*
M00*
M02*
