G04 #@! TF.FileFunction,Legend,Top*
%FSLAX46Y46*%
G04 Gerber Fmt 4.6, Leading zero omitted, Abs format (unit mm)*
G04 Created by KiCad (PCBNEW 4.0.7) date 06/01/18 16:11:17*
%MOMM*%
%LPD*%
G01*
G04 APERTURE LIST*
%ADD10C,0.100000*%
%ADD11C,0.120000*%
%ADD12C,0.075000*%
%ADD13C,0.031750*%
G04 APERTURE END LIST*
D10*
D11*
X151470000Y-115010000D02*
X151470000Y-114010000D01*
X149770000Y-114010000D02*
X149770000Y-115010000D01*
X148650000Y-115100000D02*
X148650000Y-114100000D01*
X146950000Y-114100000D02*
X146950000Y-115100000D01*
X145670000Y-116290000D02*
X145670000Y-114590000D01*
X145670000Y-114590000D02*
X143120000Y-114590000D01*
X145670000Y-116290000D02*
X143120000Y-116290000D01*
X148290000Y-109780000D02*
X147290000Y-109780000D01*
X147290000Y-109780000D02*
X147290000Y-111880000D01*
X148290000Y-109780000D02*
X148290000Y-111880000D01*
X149470000Y-111510000D02*
X149470000Y-110310000D01*
X151230000Y-110310000D02*
X151230000Y-111510000D01*
X150750000Y-105670000D02*
X150750000Y-106870000D01*
X148990000Y-106870000D02*
X148990000Y-105670000D01*
X146640000Y-106840000D02*
X146640000Y-105640000D01*
X148400000Y-105640000D02*
X148400000Y-106840000D01*
X143370000Y-113690000D02*
X145130000Y-113690000D01*
X145130000Y-110620000D02*
X142700000Y-110620000D01*
X143210000Y-108250000D02*
X145010000Y-108250000D01*
X145010000Y-105030000D02*
X142560000Y-105030000D01*
D12*
X150717143Y-114520000D02*
X150731429Y-114534286D01*
X150745714Y-114577143D01*
X150745714Y-114605714D01*
X150731429Y-114648571D01*
X150702857Y-114677143D01*
X150674286Y-114691428D01*
X150617143Y-114705714D01*
X150574286Y-114705714D01*
X150517143Y-114691428D01*
X150488571Y-114677143D01*
X150460000Y-114648571D01*
X150445714Y-114605714D01*
X150445714Y-114577143D01*
X150460000Y-114534286D01*
X150474286Y-114520000D01*
X150745714Y-114234286D02*
X150745714Y-114405714D01*
X150745714Y-114320000D02*
X150445714Y-114320000D01*
X150488571Y-114348571D01*
X150517143Y-114377143D01*
X150531429Y-114405714D01*
X147907143Y-114650000D02*
X147921429Y-114664286D01*
X147935714Y-114707143D01*
X147935714Y-114735714D01*
X147921429Y-114778571D01*
X147892857Y-114807143D01*
X147864286Y-114821428D01*
X147807143Y-114835714D01*
X147764286Y-114835714D01*
X147707143Y-114821428D01*
X147678571Y-114807143D01*
X147650000Y-114778571D01*
X147635714Y-114735714D01*
X147635714Y-114707143D01*
X147650000Y-114664286D01*
X147664286Y-114650000D01*
X147664286Y-114535714D02*
X147650000Y-114521428D01*
X147635714Y-114492857D01*
X147635714Y-114421428D01*
X147650000Y-114392857D01*
X147664286Y-114378571D01*
X147692857Y-114364286D01*
X147721429Y-114364286D01*
X147764286Y-114378571D01*
X147935714Y-114550000D01*
X147935714Y-114364286D01*
X141948572Y-116255714D02*
X141948572Y-115955714D01*
X142020000Y-115955714D01*
X142062857Y-115970000D01*
X142091429Y-115998571D01*
X142105714Y-116027143D01*
X142120000Y-116084286D01*
X142120000Y-116127143D01*
X142105714Y-116184286D01*
X142091429Y-116212857D01*
X142062857Y-116241429D01*
X142020000Y-116255714D01*
X141948572Y-116255714D01*
X142405714Y-116255714D02*
X142234286Y-116255714D01*
X142320000Y-116255714D02*
X142320000Y-115955714D01*
X142291429Y-115998571D01*
X142262857Y-116027143D01*
X142234286Y-116041429D01*
D13*
X148805714Y-111251428D02*
X148505714Y-111251428D01*
X148505714Y-111180000D01*
X148520000Y-111137143D01*
X148548571Y-111108571D01*
X148577143Y-111094286D01*
X148634286Y-111080000D01*
X148677143Y-111080000D01*
X148734286Y-111094286D01*
X148762857Y-111108571D01*
X148791429Y-111137143D01*
X148805714Y-111180000D01*
X148805714Y-111251428D01*
X148534286Y-110965714D02*
X148520000Y-110951428D01*
X148505714Y-110922857D01*
X148505714Y-110851428D01*
X148520000Y-110822857D01*
X148534286Y-110808571D01*
X148562857Y-110794286D01*
X148591429Y-110794286D01*
X148634286Y-110808571D01*
X148805714Y-110980000D01*
X148805714Y-110794286D01*
D12*
X150370001Y-109225714D02*
X150227144Y-109225714D01*
X150227144Y-108925714D01*
X150627143Y-109225714D02*
X150455715Y-109225714D01*
X150541429Y-109225714D02*
X150541429Y-108925714D01*
X150512858Y-108968571D01*
X150484286Y-108997143D01*
X150455715Y-109011429D01*
X151145714Y-105170000D02*
X151002857Y-105270000D01*
X151145714Y-105341428D02*
X150845714Y-105341428D01*
X150845714Y-105227143D01*
X150860000Y-105198571D01*
X150874286Y-105184286D01*
X150902857Y-105170000D01*
X150945714Y-105170000D01*
X150974286Y-105184286D01*
X150988571Y-105198571D01*
X151002857Y-105227143D01*
X151002857Y-105341428D01*
X151145714Y-104884286D02*
X151145714Y-105055714D01*
X151145714Y-104970000D02*
X150845714Y-104970000D01*
X150888571Y-104998571D01*
X150917143Y-105027143D01*
X150931429Y-105055714D01*
X148795714Y-105040000D02*
X148652857Y-105140000D01*
X148795714Y-105211428D02*
X148495714Y-105211428D01*
X148495714Y-105097143D01*
X148510000Y-105068571D01*
X148524286Y-105054286D01*
X148552857Y-105040000D01*
X148595714Y-105040000D01*
X148624286Y-105054286D01*
X148638571Y-105068571D01*
X148652857Y-105097143D01*
X148652857Y-105211428D01*
X148524286Y-104925714D02*
X148510000Y-104911428D01*
X148495714Y-104882857D01*
X148495714Y-104811428D01*
X148510000Y-104782857D01*
X148524286Y-104768571D01*
X148552857Y-104754286D01*
X148581429Y-104754286D01*
X148624286Y-104768571D01*
X148795714Y-104940000D01*
X148795714Y-104754286D01*
X144021429Y-110035714D02*
X144021429Y-110278571D01*
X144035714Y-110307143D01*
X144050000Y-110321429D01*
X144078571Y-110335714D01*
X144135714Y-110335714D01*
X144164286Y-110321429D01*
X144178571Y-110307143D01*
X144192857Y-110278571D01*
X144192857Y-110035714D01*
X144492857Y-110335714D02*
X144321429Y-110335714D01*
X144407143Y-110335714D02*
X144407143Y-110035714D01*
X144378572Y-110078571D01*
X144350000Y-110107143D01*
X144321429Y-110121429D01*
X143951429Y-104445714D02*
X143951429Y-104688571D01*
X143965714Y-104717143D01*
X143980000Y-104731429D01*
X144008571Y-104745714D01*
X144065714Y-104745714D01*
X144094286Y-104731429D01*
X144108571Y-104717143D01*
X144122857Y-104688571D01*
X144122857Y-104445714D01*
X144251429Y-104474286D02*
X144265715Y-104460000D01*
X144294286Y-104445714D01*
X144365715Y-104445714D01*
X144394286Y-104460000D01*
X144408572Y-104474286D01*
X144422857Y-104502857D01*
X144422857Y-104531429D01*
X144408572Y-104574286D01*
X144237143Y-104745714D01*
X144422857Y-104745714D01*
M02*
