G04 #@! TF.FileFunction,Copper,L2,Bot,Signal*
%FSLAX46Y46*%
G04 Gerber Fmt 4.6, Leading zero omitted, Abs format (unit mm)*
G04 Created by KiCad (PCBNEW 4.0.7) date 06/01/18 16:11:17*
%MOMM*%
%LPD*%
G01*
G04 APERTURE LIST*
%ADD10C,0.100000*%
%ADD11R,1.000000X1.000000*%
%ADD12C,0.600000*%
%ADD13C,0.250000*%
G04 APERTURE END LIST*
D10*
D11*
X147010000Y-109420000D03*
X144830000Y-109430000D03*
X142680000Y-109420000D03*
D12*
X144060000Y-106050000D03*
X143950000Y-104650000D03*
X148924213Y-114974990D03*
X146320000Y-115700000D03*
X149250000Y-112960000D03*
X142030000Y-104660000D03*
X144440000Y-111020000D03*
X149235010Y-110039740D03*
X146710000Y-111960000D03*
X142930000Y-114090000D03*
X149920000Y-108695010D03*
X146600000Y-114300000D03*
X143670000Y-108640000D03*
X148680000Y-108920000D03*
D13*
X143950000Y-104650000D02*
X143950000Y-105940000D01*
X143950000Y-105940000D02*
X144060000Y-106050000D01*
X148624214Y-115274989D02*
X148924213Y-114974990D01*
X148199203Y-115700000D02*
X148624214Y-115274989D01*
X146320000Y-115700000D02*
X148199203Y-115700000D01*
X145870000Y-109975002D02*
X145870000Y-108924264D01*
X145870000Y-108924264D02*
X145125736Y-108180000D01*
X142680000Y-109420000D02*
X142680000Y-110170000D01*
X142680000Y-110170000D02*
X142765001Y-110255001D01*
X142765001Y-110255001D02*
X145590001Y-110255001D01*
X145590001Y-110255001D02*
X145870000Y-109975002D01*
X151650000Y-110560000D02*
X149250000Y-112960000D01*
X150660000Y-108070000D02*
X151650000Y-109060000D01*
X148730000Y-108070000D02*
X150660000Y-108070000D01*
X148630000Y-108170000D02*
X148730000Y-108070000D01*
X147365002Y-108170000D02*
X148630000Y-108170000D01*
X147355002Y-108180000D02*
X147365002Y-108170000D01*
X145125736Y-108180000D02*
X147355002Y-108180000D01*
X142030000Y-105084264D02*
X145125736Y-108180000D01*
X142030000Y-104660000D02*
X142030000Y-105084264D01*
X151650000Y-109060000D02*
X151650000Y-110560000D01*
X144440000Y-111020000D02*
X148254750Y-111020000D01*
X148254750Y-111020000D02*
X148935011Y-110339739D01*
X148935011Y-110339739D02*
X149235010Y-110039740D01*
X146410001Y-112259999D02*
X146710000Y-111960000D01*
X144580000Y-114090000D02*
X146410001Y-112259999D01*
X142930000Y-114090000D02*
X144580000Y-114090000D01*
X149920000Y-109119274D02*
X149920000Y-108695010D01*
X149920000Y-110980000D02*
X149920000Y-109119274D01*
X146600000Y-114300000D02*
X149920000Y-110980000D01*
X144830000Y-109430000D02*
X144460000Y-109430000D01*
X144460000Y-109430000D02*
X143670000Y-108640000D01*
X148250000Y-108930000D02*
X148670000Y-108930000D01*
X148670000Y-108930000D02*
X148680000Y-108920000D01*
X147010000Y-109420000D02*
X147760000Y-109420000D01*
X147760000Y-109420000D02*
X148250000Y-108930000D01*
M02*
