G04 #@! TF.FileFunction,Legend,Bot*
%FSLAX46Y46*%
G04 Gerber Fmt 4.6, Leading zero omitted, Abs format (unit mm)*
G04 Created by KiCad (PCBNEW 4.0.7) date 06/01/18 16:11:17*
%MOMM*%
%LPD*%
G01*
G04 APERTURE LIST*
%ADD10C,0.100000*%
%ADD11C,0.075000*%
G04 APERTURE END LIST*
D10*
D11*
X147450000Y-110815714D02*
X147550000Y-110672857D01*
X147621428Y-110815714D02*
X147621428Y-110515714D01*
X147507143Y-110515714D01*
X147478571Y-110530000D01*
X147464286Y-110544286D01*
X147450000Y-110572857D01*
X147450000Y-110615714D01*
X147464286Y-110644286D01*
X147478571Y-110658571D01*
X147507143Y-110672857D01*
X147621428Y-110672857D01*
X147321428Y-110658571D02*
X147221428Y-110658571D01*
X147178571Y-110815714D02*
X147321428Y-110815714D01*
X147321428Y-110515714D01*
X147178571Y-110515714D01*
X146949999Y-110658571D02*
X147049999Y-110658571D01*
X147049999Y-110815714D02*
X147049999Y-110515714D01*
X146907142Y-110515714D01*
X146749999Y-110515714D02*
X146749999Y-110587143D01*
X146821428Y-110558571D02*
X146749999Y-110587143D01*
X146678571Y-110558571D01*
X146792856Y-110644286D02*
X146749999Y-110587143D01*
X146707142Y-110644286D01*
X146521428Y-110515714D02*
X146521428Y-110587143D01*
X146592857Y-110558571D02*
X146521428Y-110587143D01*
X146450000Y-110558571D01*
X146564285Y-110644286D02*
X146521428Y-110587143D01*
X146478571Y-110644286D01*
X145270000Y-110825714D02*
X145370000Y-110682857D01*
X145441428Y-110825714D02*
X145441428Y-110525714D01*
X145327143Y-110525714D01*
X145298571Y-110540000D01*
X145284286Y-110554286D01*
X145270000Y-110582857D01*
X145270000Y-110625714D01*
X145284286Y-110654286D01*
X145298571Y-110668571D01*
X145327143Y-110682857D01*
X145441428Y-110682857D01*
X145141428Y-110668571D02*
X145041428Y-110668571D01*
X144998571Y-110825714D02*
X145141428Y-110825714D01*
X145141428Y-110525714D01*
X144998571Y-110525714D01*
X144769999Y-110668571D02*
X144869999Y-110668571D01*
X144869999Y-110825714D02*
X144869999Y-110525714D01*
X144727142Y-110525714D01*
X144569999Y-110525714D02*
X144569999Y-110597143D01*
X144641428Y-110568571D02*
X144569999Y-110597143D01*
X144498571Y-110568571D01*
X144612856Y-110654286D02*
X144569999Y-110597143D01*
X144527142Y-110654286D01*
X144341428Y-110525714D02*
X144341428Y-110597143D01*
X144412857Y-110568571D02*
X144341428Y-110597143D01*
X144270000Y-110568571D01*
X144384285Y-110654286D02*
X144341428Y-110597143D01*
X144298571Y-110654286D01*
X143120000Y-110815714D02*
X143220000Y-110672857D01*
X143291428Y-110815714D02*
X143291428Y-110515714D01*
X143177143Y-110515714D01*
X143148571Y-110530000D01*
X143134286Y-110544286D01*
X143120000Y-110572857D01*
X143120000Y-110615714D01*
X143134286Y-110644286D01*
X143148571Y-110658571D01*
X143177143Y-110672857D01*
X143291428Y-110672857D01*
X142991428Y-110658571D02*
X142891428Y-110658571D01*
X142848571Y-110815714D02*
X142991428Y-110815714D01*
X142991428Y-110515714D01*
X142848571Y-110515714D01*
X142619999Y-110658571D02*
X142719999Y-110658571D01*
X142719999Y-110815714D02*
X142719999Y-110515714D01*
X142577142Y-110515714D01*
X142419999Y-110515714D02*
X142419999Y-110587143D01*
X142491428Y-110558571D02*
X142419999Y-110587143D01*
X142348571Y-110558571D01*
X142462856Y-110644286D02*
X142419999Y-110587143D01*
X142377142Y-110644286D01*
X142191428Y-110515714D02*
X142191428Y-110587143D01*
X142262857Y-110558571D02*
X142191428Y-110587143D01*
X142120000Y-110558571D01*
X142234285Y-110644286D02*
X142191428Y-110587143D01*
X142148571Y-110644286D01*
M02*
