G04 #@! TF.FileFunction,Copper,L1,Top,Signal*
%FSLAX46Y46*%
G04 Gerber Fmt 4.6, Leading zero omitted, Abs format (unit mm)*
G04 Created by KiCad (PCBNEW 4.0.7) date 06/01/18 16:11:17*
%MOMM*%
%LPD*%
G01*
G04 APERTURE LIST*
%ADD10C,0.100000*%
%ADD11R,1.250000X1.000000*%
%ADD12R,0.600000X0.450000*%
%ADD13R,0.800000X0.800000*%
%ADD14R,1.300000X0.700000*%
%ADD15R,1.220000X0.650000*%
%ADD16R,1.060000X0.650000*%
%ADD17C,0.600000*%
%ADD18C,0.250000*%
G04 APERTURE END LIST*
D10*
D11*
X150620000Y-113510000D03*
X150620000Y-115510000D03*
X147800000Y-113600000D03*
X147800000Y-115600000D03*
D12*
X145220000Y-115440000D03*
X143120000Y-115440000D03*
D13*
X147790000Y-111880000D03*
X147790000Y-110280000D03*
D14*
X150350000Y-109960000D03*
X150350000Y-111860000D03*
X149870000Y-107220000D03*
X149870000Y-105320000D03*
X147520000Y-105290000D03*
X147520000Y-107190000D03*
D15*
X142940000Y-111180000D03*
X142940000Y-112130000D03*
X142940000Y-113080000D03*
X145560000Y-113080000D03*
X145560000Y-112130000D03*
X145560000Y-111180000D03*
D16*
X143010000Y-105690000D03*
X143010000Y-106640000D03*
X143010000Y-107590000D03*
X145210000Y-107590000D03*
X145210000Y-105690000D03*
X145210000Y-106640000D03*
D17*
X144060000Y-106050000D03*
X143950000Y-104650000D03*
X148924213Y-114974990D03*
X146320000Y-115700000D03*
X149250000Y-112960000D03*
X142030000Y-104660000D03*
X144440000Y-111020000D03*
X149235010Y-110039740D03*
X146710000Y-111960000D03*
X142930000Y-114090000D03*
X149920000Y-108695010D03*
X146600000Y-114300000D03*
X143670000Y-108640000D03*
X148680000Y-108920000D03*
D18*
X144430000Y-106640000D02*
X144354999Y-106715001D01*
X145210000Y-106640000D02*
X144430000Y-106640000D01*
X144354999Y-106715001D02*
X144354999Y-109399999D01*
X144354999Y-109399999D02*
X145560000Y-110605000D01*
X148610000Y-109714998D02*
X148610000Y-110420000D01*
X148610000Y-110420000D02*
X150050000Y-111860000D01*
X150050000Y-111860000D02*
X150350000Y-111860000D01*
X145560000Y-110605000D02*
X146610001Y-109554999D01*
X146610001Y-109554999D02*
X148450001Y-109554999D01*
X148450001Y-109554999D02*
X148610000Y-109714998D01*
X145560000Y-110605000D02*
X145560000Y-111180000D01*
X150350000Y-111860000D02*
X150350000Y-113240000D01*
X150350000Y-113240000D02*
X150620000Y-113510000D01*
X144060000Y-106050000D02*
X143470000Y-106640000D01*
X143470000Y-106640000D02*
X143010000Y-106640000D01*
X148404990Y-104589988D02*
X144010012Y-104589988D01*
X144010012Y-104589988D02*
X143950000Y-104650000D01*
X148495001Y-104679999D02*
X148404990Y-104589988D01*
X142230000Y-106640000D02*
X143010000Y-106640000D01*
X147820000Y-107190000D02*
X148495001Y-106514999D01*
X147520000Y-107190000D02*
X147820000Y-107190000D01*
X148495001Y-106514999D02*
X148495001Y-104679999D01*
X148633599Y-116510009D02*
X148548591Y-116425001D01*
X150495000Y-115510000D02*
X149494991Y-116510009D01*
X149494991Y-116510009D02*
X148633599Y-116510009D01*
X142994999Y-116425001D02*
X142004999Y-115435001D01*
X148548591Y-116425001D02*
X142994999Y-116425001D01*
X142004999Y-115435001D02*
X142004999Y-112205001D01*
X150620000Y-115510000D02*
X150495000Y-115510000D01*
X149870000Y-105320000D02*
X149570000Y-105320000D01*
X149570000Y-105320000D02*
X147700000Y-107190000D01*
X147700000Y-107190000D02*
X147520000Y-107190000D01*
X142004999Y-112205001D02*
X142004999Y-106865001D01*
X142004999Y-106865001D02*
X142230000Y-106640000D01*
X142004999Y-112205001D02*
X142080000Y-112130000D01*
X142080000Y-112130000D02*
X142940000Y-112130000D01*
X147800000Y-113600000D02*
X147925000Y-113600000D01*
X148924213Y-114599213D02*
X148924213Y-114974990D01*
X147925000Y-113600000D02*
X148924213Y-114599213D01*
X146320000Y-115700000D02*
X145480000Y-115700000D01*
X145480000Y-115700000D02*
X145220000Y-115440000D01*
X147790000Y-111880000D02*
X147790000Y-113590000D01*
X147790000Y-113590000D02*
X147800000Y-113600000D01*
X146620000Y-105290000D02*
X147520000Y-105290000D01*
X146369999Y-105039999D02*
X146620000Y-105290000D01*
X143275001Y-105424999D02*
X144100005Y-105424999D01*
X144485005Y-105039999D02*
X146369999Y-105039999D01*
X144100005Y-105424999D02*
X144485005Y-105039999D01*
X143010000Y-105690000D02*
X143275001Y-105424999D01*
X149569991Y-115424368D02*
X149394359Y-115600000D01*
X149569991Y-113279991D02*
X149569991Y-115424368D01*
X149250000Y-112960000D02*
X149569991Y-113279991D01*
X149394359Y-115600000D02*
X147800000Y-115600000D01*
X143010000Y-105690000D02*
X143010000Y-105640000D01*
X143010000Y-105640000D02*
X142030000Y-104660000D01*
X147220000Y-105290000D02*
X147520000Y-105290000D01*
X144624999Y-113904999D02*
X144624999Y-112205001D01*
X144700000Y-112130000D02*
X145560000Y-112130000D01*
X145609999Y-114889999D02*
X144624999Y-113904999D01*
X146399999Y-115074999D02*
X146214999Y-114889999D01*
X147274999Y-115074999D02*
X146399999Y-115074999D01*
X144624999Y-112205001D02*
X144700000Y-112130000D01*
X147800000Y-115600000D02*
X147274999Y-115074999D01*
X146214999Y-114889999D02*
X145609999Y-114889999D01*
X142940000Y-111180000D02*
X143800000Y-111180000D01*
X143100000Y-111020000D02*
X142940000Y-111180000D01*
X144440000Y-111020000D02*
X143100000Y-111020000D01*
X149314750Y-109960000D02*
X149235010Y-110039740D01*
X150350000Y-109960000D02*
X149314750Y-109960000D01*
X143800000Y-111180000D02*
X143875001Y-111255001D01*
X143875001Y-111255001D02*
X143875001Y-114209999D01*
X143875001Y-114209999D02*
X143120000Y-114965000D01*
X143120000Y-114965000D02*
X143120000Y-115440000D01*
X146710000Y-111960000D02*
X147009999Y-111660001D01*
X147009999Y-111660001D02*
X147009999Y-110410001D01*
X147009999Y-110410001D02*
X147140000Y-110280000D01*
X147140000Y-110280000D02*
X147790000Y-110280000D01*
X142940000Y-113080000D02*
X142940000Y-114080000D01*
X142940000Y-114080000D02*
X142930000Y-114090000D01*
X149870000Y-107220000D02*
X149870000Y-108645010D01*
X149870000Y-108645010D02*
X149920000Y-108695010D01*
X145560000Y-113080000D02*
X145560000Y-113260000D01*
X145560000Y-113260000D02*
X146600000Y-114300000D01*
X143670000Y-108640000D02*
X143670000Y-108250000D01*
X143670000Y-108250000D02*
X143010000Y-107590000D01*
X146330000Y-107585002D02*
X146330000Y-106030000D01*
X146330000Y-106030000D02*
X145990000Y-105690000D01*
X145990000Y-105690000D02*
X145210000Y-105690000D01*
X148680000Y-108920000D02*
X148380001Y-108620001D01*
X148380001Y-108620001D02*
X147364999Y-108620001D01*
X147364999Y-108620001D02*
X146330000Y-107585002D01*
M02*
